solid DIN_Rail_Hook_v1
facet normal 1.0 -0.0 -0.0
  outer loop
    vertex 76.49249338651765 17.411894938266308 0.3
    vertex 76.49249338651765 -0.08810506173368905 3.0
    vertex 76.49249338651765 -0.08810506173369081 0.30000000000000054
  endloop
endfacet
facet normal 1.0 -0.0 -0.0
  outer loop
    vertex 76.49249338651765 -0.08810506173368905 3.0
    vertex 76.49249338651765 17.411894938266308 0.3
    vertex 76.49249338651765 17.411894938266308 3.0
  endloop
endfacet
facet normal -1.0 0.0 0.0
  outer loop
    vertex 74.79249338651765 17.411894938266308 3.0
    vertex 74.79249338651765 -0.08810506173369116 0.3
    vertex 74.79249338651765 -0.08810506173369116 3.0
  endloop
endfacet
facet normal -1.0 0.0 0.0
  outer loop
    vertex 74.79249338651765 -0.08810506173369116 0.3
    vertex 74.79249338651765 17.411894938266308 3.0
    vertex 74.79249338651765 17.411894938266308 0.3
  endloop
endfacet
facet normal 1.6847226228457137e-16 -1.6365876907644048e-17 -1.0
  outer loop
    vertex 76.49249338651765 17.411894938266308 0.3
    vertex 74.79249338651765 -0.08810506173369116 0.3
    vertex 74.79249338651765 17.411894938266308 0.3
  endloop
endfacet
facet normal 1.6847226228457137e-16 -1.6365876907644048e-17 -1.0
  outer loop
    vertex 74.79249338651765 -0.08810506173369116 0.3
    vertex 76.49249338651765 17.411894938266308 0.3
    vertex 76.49249338651765 -0.08810506173369081 0.30000000000000054
  endloop
endfacet
facet normal -0.0 -0.0 1.0
  outer loop
    vertex 76.49249338651765 -0.08810506173368905 3.0
    vertex 74.79249338651765 17.411894938266308 3.0
    vertex 74.79249338651765 -0.08810506173369116 3.0
  endloop
endfacet
facet normal -0.0 -0.0 1.0
  outer loop
    vertex 74.79249338651765 17.411894938266308 3.0
    vertex 76.49249338651765 -0.08810506173368905 3.0
    vertex 76.49249338651765 17.411894938266308 3.0
  endloop
endfacet
facet normal -0.0 1.0 -0.0
  outer loop
    vertex 74.79249338651765 17.411894938266308 3.0
    vertex 76.49249338651765 17.411894938266308 0.3
    vertex 74.79249338651765 17.411894938266308 0.3
  endloop
endfacet
facet normal -0.0 1.0 -0.0
  outer loop
    vertex 76.49249338651765 17.411894938266308 0.3
    vertex 74.79249338651765 17.411894938266308 3.0
    vertex 76.49249338651765 17.411894938266308 3.0
  endloop
endfacet
facet normal 7.257266683027691e-16 -1.0 3.2638500955415477e-16
  outer loop
    vertex 76.49249338651765 -0.08810506173369081 0.30000000000000054
    vertex 74.79249338651765 -0.08810506173369116 3.0
    vertex 74.79249338651765 -0.08810506173369116 0.3
  endloop
endfacet
facet normal 7.257266683027691e-16 -1.0 3.2638500955415477e-16
  outer loop
    vertex 74.79249338651765 -0.08810506173369116 3.0
    vertex 76.49249338651765 -0.08810506173369081 0.30000000000000054
    vertex 76.49249338651765 -0.08810506173368905 3.0
  endloop
endfacet
endsolid DIN_Rail_Hook_v1
