solid DIN_Rail_Hook_v1
facet normal -1.0 0.0 0.0
  outer loop
    vertex 35.0 8.499999999999996 3.0
    vertex 35.0 0.9999999999999996 0.0
    vertex 35.0 0.9999999999999996 3.0
  endloop
endfacet
facet normal -1.0 0.0 0.0
  outer loop
    vertex 35.0 0.9999999999999996 0.0
    vertex 35.0 8.499999999999996 3.0
    vertex 35.0 8.499999999999996 0.0
  endloop
endfacet
facet normal 0.0 -1.0 0.0
  outer loop
    vertex 65.99999999999999 0.0 0.9999999999999996
    vertex 60.0 0.0 0.0
    vertex 65.99999999999999 0.0 0.0
  endloop
endfacet
facet normal 0.0 -1.0 0.0
  outer loop
    vertex 60.0 0.0 0.0
    vertex 65.99999999999999 0.0 0.9999999999999996
    vertex 60.0 0.0 3.0
  endloop
endfacet
facet normal 0.0 -1.0 0.0
  outer loop
    vertex 60.0 0.0 3.0
    vertex 65.99999999999999 0.0 0.9999999999999996
    vertex 63.5 0.0 3.0
  endloop
endfacet
facet normal -3.5372836583483986e-17 -0.8944271909999159 -0.4472135954999583
  outer loop
    vertex 60.0 -1.5 3.0
    vertex 30.0 0.0 0.0
    vertex 60.0 0.0 0.0
  endloop
endfacet
facet normal -3.5372836583483986e-17 -0.8944271909999159 -0.4472135954999583
  outer loop
    vertex 30.0 0.0 0.0
    vertex 60.0 -1.5 3.0
    vertex 30.0 -1.5 3.0
  endloop
endfacet
facet normal -3.5372836583483986e-17 -0.8944271909999159 -0.4472135954999583
  outer loop
    vertex 30.0 -1.5 3.0
    vertex 60.0 -1.5 3.0
    vertex 58.00000000000001 -1.5000000000000036 3.0
  endloop
endfacet
facet normal -3.5372836583483986e-17 -0.8944271909999159 -0.4472135954999583
  outer loop
    vertex 30.0 -1.5 3.0
    vertex 58.00000000000001 -1.5000000000000036 3.0
    vertex 53.000000000000014 -1.5000000000000029 3.0
  endloop
endfacet
facet normal 1.0 0.0 0.0
  outer loop
    vertex 65.99999999999999 9.499999999999998 0.0
    vertex 65.99999999999999 0.0 0.9999999999999996
    vertex 65.99999999999999 0.0 0.0
  endloop
endfacet
facet normal 1.0 0.0 0.0
  outer loop
    vertex 65.99999999999999 0.0 0.9999999999999996
    vertex 65.99999999999999 9.499999999999998 0.0
    vertex 65.99999999999999 9.499999999999998 0.9999999999999996
  endloop
endfacet
facet normal -1.127986593019161e-14 1.0 0.0
  outer loop
    vertex 53.000000000000014 10.999999999999979 5.7
    vertex 58.00000000000001 11.000000000000002 3.0
    vertex 53.000000000000014 10.999999999999979 3.0
  endloop
endfacet
facet normal -1.127986593019161e-14 1.0 0.0
  outer loop
    vertex 58.00000000000001 11.000000000000002 3.0
    vertex 53.000000000000014 10.999999999999979 5.7
    vertex 58.00000000000001 11.000000000000002 5.7
  endloop
endfacet
facet normal -1.0 0.0 0.0
  outer loop
    vertex 53.000000000000014 10.999999999999979 5.7
    vertex 53.000000000000014 -1.5000000000000029 3.0
    vertex 53.000000000000014 -1.5000000000000029 5.7
  endloop
endfacet
facet normal -1.0 0.0 0.0
  outer loop
    vertex 53.000000000000014 -1.5000000000000029 3.0
    vertex 53.000000000000014 10.999999999999979 5.7
    vertex 53.000000000000014 0.9999999999999785 3.0
  endloop
endfacet
facet normal -1.0 0.0 0.0
  outer loop
    vertex 53.000000000000014 0.9999999999999785 3.0
    vertex 53.000000000000014 10.999999999999979 5.7
    vertex 53.000000000000014 8.499999999999977 3.0
  endloop
endfacet
facet normal -1.0 0.0 0.0
  outer loop
    vertex 53.000000000000014 8.499999999999977 3.0
    vertex 53.000000000000014 10.999999999999979 5.7
    vertex 53.000000000000014 10.999999999999979 3.0
  endloop
endfacet
facet normal 0.0 -1.0 0.0
  outer loop
    vertex 53.000000000000014 8.499999999999977 3.0
    vertex 40.00000000000001 8.499999999999977 1.0000000000000002
    vertex 53.000000000000014 8.499999999999977 1.0000000000000002
  endloop
endfacet
facet normal 0.0 -1.0 0.0
  outer loop
    vertex 40.00000000000001 8.499999999999977 1.0000000000000002
    vertex 53.000000000000014 8.499999999999977 3.0
    vertex 40.00000000000001 8.499999999999977 3.0
  endloop
endfacet
facet normal -1.0 0.0 0.0
  outer loop
    vertex 30.0 11.000000000000002 3.0
    vertex 30.0 0.0 0.0
    vertex 30.0 -1.5 3.0
  endloop
endfacet
facet normal -1.0 0.0 0.0
  outer loop
    vertex 30.0 0.0 0.0
    vertex 30.0 11.000000000000002 3.0
    vertex 30.0 9.499999999999998 0.0
  endloop
endfacet
facet normal -0.0 1.0 -0.0
  outer loop
    vertex 40.00000000000001 0.9999999999999785 3.0
    vertex 53.000000000000014 0.9999999999999785 1.0000000000000002
    vertex 40.00000000000001 0.9999999999999785 1.0000000000000002
  endloop
endfacet
facet normal -0.0 1.0 -0.0
  outer loop
    vertex 53.000000000000014 0.9999999999999785 1.0000000000000002
    vertex 40.00000000000001 0.9999999999999785 3.0
    vertex 53.000000000000014 0.9999999999999785 3.0
  endloop
endfacet
facet normal 1.0 0.0 0.0
  outer loop
    vertex 60.0 11.000000000000002 3.0
    vertex 60.0 9.499999999999998 3.0
    vertex 60.0 9.499999999999998 0.0
  endloop
endfacet
facet normal 1.0 0.0 0.0
  outer loop
    vertex 58.00000000000001 11.000000000000002 3.0
    vertex 58.00000000000001 -1.5000000000000036 5.7
    vertex 58.00000000000001 -1.5000000000000036 3.0
  endloop
endfacet
facet normal 1.0 0.0 0.0
  outer loop
    vertex 58.00000000000001 -1.5000000000000036 5.7
    vertex 58.00000000000001 11.000000000000002 3.0
    vertex 58.00000000000001 11.000000000000002 5.7
  endloop
endfacet
facet normal -0.0 1.0 -0.0
  outer loop
    vertex 60.0 9.499999999999998 3.0
    vertex 65.99999999999999 9.499999999999998 0.0
    vertex 60.0 9.499999999999998 0.0
  endloop
endfacet
facet normal -0.0 1.0 -0.0
  outer loop
    vertex 65.99999999999999 9.499999999999998 0.0
    vertex 60.0 9.499999999999998 3.0
    vertex 65.99999999999999 9.499999999999998 0.9999999999999996
  endloop
endfacet
facet normal -0.0 1.0 -0.0
  outer loop
    vertex 65.99999999999999 9.499999999999998 0.9999999999999996
    vertex 60.0 9.499999999999998 3.0
    vertex 63.5 9.499999999999998 3.0
  endloop
endfacet
facet normal 9.486351629207073e-17 0.8944271909999162 -0.4472135954999574
  outer loop
    vertex 30.0 11.000000000000002 3.0
    vertex 60.0 9.499999999999998 0.0
    vertex 30.0 9.499999999999998 0.0
  endloop
endfacet
facet normal 9.486351629207073e-17 0.8944271909999162 -0.4472135954999574
  outer loop
    vertex 60.0 9.499999999999998 0.0
    vertex 30.0 11.000000000000002 3.0
    vertex 60.0 11.000000000000002 3.0
  endloop
endfacet
facet normal 9.486351629207073e-17 0.8944271909999162 -0.4472135954999574
  outer loop
    vertex 60.0 11.000000000000002 3.0
    vertex 30.0 11.000000000000002 3.0
    vertex 53.000000000000014 10.999999999999979 3.0
  endloop
endfacet
facet normal 9.486351629207073e-17 0.8944271909999162 -0.4472135954999574
  outer loop
    vertex 60.0 11.000000000000002 3.0
    vertex 53.000000000000014 10.999999999999979 3.0
    vertex 58.00000000000001 11.000000000000002 3.0
  endloop
endfacet
facet normal -1.0 0.0 0.0
  outer loop
    vertex 53.000000000000014 8.499999999999977 3.0
    vertex 53.000000000000014 0.9999999999999785 1.0000000000000002
    vertex 53.000000000000014 0.9999999999999785 3.0
  endloop
endfacet
facet normal -1.0 0.0 0.0
  outer loop
    vertex 53.000000000000014 0.9999999999999785 1.0000000000000002
    vertex 53.000000000000014 8.499999999999977 3.0
    vertex 53.000000000000014 8.499999999999977 1.0000000000000002
  endloop
endfacet
facet normal -4.699944137579828e-16 -1.0 1.4611267249162227e-32
  outer loop
    vertex 35.0 8.499999999999996 3.0
    vertex 32.0 8.5 0.0
    vertex 35.0 8.499999999999996 0.0
  endloop
endfacet
facet normal -4.699944137579828e-16 -1.0 1.4611267249162227e-32
  outer loop
    vertex 32.0 8.5 0.0
    vertex 35.0 8.499999999999996 3.0
    vertex 32.0 8.5 3.0
  endloop
endfacet
facet normal -0.0 -0.0 1.0
  outer loop
    vertex 58.00000000000001 -1.5000000000000036 3.0
    vertex 53.000000000000014 0.9999999999999785 3.0
    vertex 53.000000000000014 -1.5000000000000029 3.0
  endloop
endfacet
facet normal -0.0 -0.0 1.0
  outer loop
    vertex 53.000000000000014 0.9999999999999785 3.0
    vertex 58.00000000000001 -1.5000000000000036 3.0
    vertex 53.000000000000014 8.499999999999977 3.0
  endloop
endfacet
facet normal -0.0 -0.0 1.0
  outer loop
    vertex 53.000000000000014 8.499999999999977 3.0
    vertex 58.00000000000001 -1.5000000000000036 3.0
    vertex 53.000000000000014 10.999999999999979 3.0
  endloop
endfacet
facet normal -0.0 -0.0 1.0
  outer loop
    vertex 53.000000000000014 10.999999999999979 3.0
    vertex 58.00000000000001 -1.5000000000000036 3.0
    vertex 58.00000000000001 11.000000000000002 3.0
  endloop
endfacet
facet normal 1.0 0.0 0.0
  outer loop
    vertex 32.0 8.5 0.0
    vertex 32.0 0.9999999999999996 3.0
    vertex 32.0 0.9999999999999996 0.0
  endloop
endfacet
facet normal 1.0 0.0 0.0
  outer loop
    vertex 32.0 0.9999999999999996 3.0
    vertex 32.0 8.5 0.0
    vertex 32.0 8.5 3.0
  endloop
endfacet
facet normal 0.0 1.0 0.0
  outer loop
    vertex 32.0 0.9999999999999996 3.0
    vertex 35.0 0.9999999999999996 0.0
    vertex 32.0 0.9999999999999996 0.0
  endloop
endfacet
facet normal 0.0 1.0 0.0
  outer loop
    vertex 35.0 0.9999999999999996 0.0
    vertex 32.0 0.9999999999999996 3.0
    vertex 35.0 0.9999999999999996 3.0
  endloop
endfacet
facet normal -0.0 -0.0 1.0
  outer loop
    vertex 63.5 0.0 3.0
    vertex 60.0 9.499999999999998 3.0
    vertex 60.0 0.0 3.0
  endloop
endfacet
facet normal -0.0 -0.0 1.0
  outer loop
    vertex 60.0 9.499999999999998 3.0
    vertex 63.5 0.0 3.0
    vertex 63.5 9.499999999999998 3.0
  endloop
endfacet
facet normal -0.0 -0.0 1.0
  outer loop
    vertex 60.0 -1.5 3.0
    vertex 58.00000000000001 11.000000000000002 3.0
    vertex 58.00000000000001 -1.5000000000000036 3.0
  endloop
endfacet
facet normal -0.0 -0.0 1.0
  outer loop
    vertex 58.00000000000001 11.000000000000002 3.0
    vertex 60.0 -1.5 3.0
    vertex 60.0 11.000000000000002 3.0
  endloop
endfacet
facet normal -0.0 -0.0 1.0
  outer loop
    vertex 60.0 11.000000000000002 3.0
    vertex 60.0 -1.5 3.0
    vertex 60.0 0.0 3.0
  endloop
endfacet
facet normal -0.0 -0.0 1.0
  outer loop
    vertex 60.0 11.000000000000002 3.0
    vertex 60.0 0.0 3.0
    vertex 60.0 9.499999999999998 3.0
  endloop
endfacet
facet normal 0.6246950475544252 -0.0 0.7808688094430298
  outer loop
    vertex 65.99999999999999 0.0 0.9999999999999996
    vertex 63.5 9.499999999999998 3.0
    vertex 63.5 0.0 3.0
  endloop
endfacet
facet normal 0.6246950475544252 -0.0 0.7808688094430298
  outer loop
    vertex 63.5 9.499999999999998 3.0
    vertex 65.99999999999999 0.0 0.9999999999999996
    vertex 65.99999999999999 9.499999999999998 0.9999999999999996
  endloop
endfacet
facet normal 0.0 0.0 1.0
  outer loop
    vertex 58.00000000000001 -1.5000000000000036 5.7
    vertex 53.000000000000014 10.999999999999979 5.7
    vertex 53.000000000000014 -1.5000000000000029 5.7
  endloop
endfacet
facet normal 0.0 0.0 1.0
  outer loop
    vertex 53.000000000000014 10.999999999999979 5.7
    vertex 58.00000000000001 -1.5000000000000036 5.7
    vertex 58.00000000000001 11.000000000000002 5.7
  endloop
endfacet
facet normal 0.0 0.0 -1.0
  outer loop
    vertex 30.0 9.499999999999998 0.0
    vertex 32.0 8.5 0.0
    vertex 30.0 0.0 0.0
  endloop
endfacet
facet normal 0.0 0.0 -1.0
  outer loop
    vertex 32.0 8.5 0.0
    vertex 30.0 9.499999999999998 0.0
    vertex 60.0 9.499999999999998 0.0
  endloop
endfacet
facet normal 0.0 0.0 -1.0
  outer loop
    vertex 32.0 8.5 0.0
    vertex 60.0 9.499999999999998 0.0
    vertex 35.0 8.499999999999996 0.0
  endloop
endfacet
facet normal 0.0 0.0 -1.0
  outer loop
    vertex 35.0 8.499999999999996 0.0
    vertex 60.0 9.499999999999998 0.0
    vertex 35.0 0.9999999999999996 0.0
  endloop
endfacet
facet normal 0.0 0.0 -1.0
  outer loop
    vertex 30.0 0.0 0.0
    vertex 32.0 0.9999999999999996 0.0
    vertex 60.0 0.0 0.0
  endloop
endfacet
facet normal 0.0 0.0 -1.0
  outer loop
    vertex 32.0 0.9999999999999996 0.0
    vertex 30.0 0.0 0.0
    vertex 32.0 8.5 0.0
  endloop
endfacet
facet normal 0.0 0.0 -1.0
  outer loop
    vertex 60.0 0.0 0.0
    vertex 32.0 0.9999999999999996 0.0
    vertex 35.0 0.9999999999999996 0.0
  endloop
endfacet
facet normal 0.0 0.0 -1.0
  outer loop
    vertex 60.0 0.0 0.0
    vertex 35.0 0.9999999999999996 0.0
    vertex 60.0 9.499999999999998 0.0
  endloop
endfacet
facet normal 0.0 0.0 -1.0
  outer loop
    vertex 60.0 0.0 0.0
    vertex 60.0 9.499999999999998 0.0
    vertex 65.99999999999999 9.499999999999998 0.0
  endloop
endfacet
facet normal 0.0 0.0 -1.0
  outer loop
    vertex 60.0 0.0 0.0
    vertex 65.99999999999999 9.499999999999998 0.0
    vertex 65.99999999999999 0.0 0.0
  endloop
endfacet
facet normal -1.762479051592439e-16 -1.0 0.0
  outer loop
    vertex 58.00000000000001 -1.5000000000000036 5.7
    vertex 53.000000000000014 -1.5000000000000029 3.0
    vertex 58.00000000000001 -1.5000000000000036 3.0
  endloop
endfacet
facet normal -1.762479051592439e-16 -1.0 0.0
  outer loop
    vertex 53.000000000000014 -1.5000000000000029 3.0
    vertex 58.00000000000001 -1.5000000000000036 5.7
    vertex 53.000000000000014 -1.5000000000000029 5.7
  endloop
endfacet
facet normal -0.0 -0.0 1.0
  outer loop
    vertex 30.0 -1.5 3.0
    vertex 32.0 0.9999999999999996 3.0
    vertex 30.0 11.000000000000002 3.0
  endloop
endfacet
facet normal -0.0 -0.0 1.0
  outer loop
    vertex 32.0 0.9999999999999996 3.0
    vertex 30.0 -1.5 3.0
    vertex 53.000000000000014 -1.5000000000000029 3.0
  endloop
endfacet
facet normal -0.0 -0.0 1.0
  outer loop
    vertex 32.0 0.9999999999999996 3.0
    vertex 53.000000000000014 -1.5000000000000029 3.0
    vertex 35.0 0.9999999999999996 3.0
  endloop
endfacet
facet normal -0.0 -0.0 1.0
  outer loop
    vertex 35.0 0.9999999999999996 3.0
    vertex 53.000000000000014 -1.5000000000000029 3.0
    vertex 40.00000000000001 0.9999999999999785 3.0
  endloop
endfacet
facet normal -0.0 -0.0 1.0
  outer loop
    vertex 35.0 0.9999999999999996 3.0
    vertex 40.00000000000001 0.9999999999999785 3.0
    vertex 35.0 8.499999999999996 3.0
  endloop
endfacet
facet normal -0.0 -0.0 1.0
  outer loop
    vertex 40.00000000000001 0.9999999999999785 3.0
    vertex 53.000000000000014 -1.5000000000000029 3.0
    vertex 53.000000000000014 0.9999999999999785 3.0
  endloop
endfacet
facet normal -0.0 -0.0 1.0
  outer loop
    vertex 30.0 11.000000000000002 3.0
    vertex 32.0 8.5 3.0
    vertex 53.000000000000014 10.999999999999979 3.0
  endloop
endfacet
facet normal -0.0 -0.0 1.0
  outer loop
    vertex 32.0 8.5 3.0
    vertex 30.0 11.000000000000002 3.0
    vertex 32.0 0.9999999999999996 3.0
  endloop
endfacet
facet normal -0.0 -0.0 1.0
  outer loop
    vertex 53.000000000000014 10.999999999999979 3.0
    vertex 32.0 8.5 3.0
    vertex 35.0 8.499999999999996 3.0
  endloop
endfacet
facet normal -0.0 -0.0 1.0
  outer loop
    vertex 53.000000000000014 10.999999999999979 3.0
    vertex 35.0 8.499999999999996 3.0
    vertex 40.00000000000001 8.499999999999977 3.0
  endloop
endfacet
facet normal -0.0 -0.0 1.0
  outer loop
    vertex 40.00000000000001 8.499999999999977 3.0
    vertex 35.0 8.499999999999996 3.0
    vertex 40.00000000000001 0.9999999999999785 3.0
  endloop
endfacet
facet normal -0.0 -0.0 1.0
  outer loop
    vertex 53.000000000000014 10.999999999999979 3.0
    vertex 40.00000000000001 8.499999999999977 3.0
    vertex 53.000000000000014 8.499999999999977 3.0
  endloop
endfacet
facet normal 1.0 0.0 0.0
  outer loop
    vertex 60.0 0.0 3.0
    vertex 60.0 -1.5 3.0
    vertex 60.0 0.0 0.0
  endloop
endfacet
facet normal 0.0 0.0 1.0
  outer loop
    vertex 53.000000000000014 0.9999999999999785 1.0000000000000002
    vertex 40.00000000000001 8.499999999999977 1.0000000000000002
    vertex 40.00000000000001 0.9999999999999785 1.0000000000000002
  endloop
endfacet
facet normal 0.0 0.0 1.0
  outer loop
    vertex 40.00000000000001 8.499999999999977 1.0000000000000002
    vertex 53.000000000000014 0.9999999999999785 1.0000000000000002
    vertex 53.000000000000014 8.499999999999977 1.0000000000000002
  endloop
endfacet
facet normal 1.0 0.0 0.0
  outer loop
    vertex 40.00000000000001 8.499999999999977 1.0000000000000002
    vertex 40.00000000000001 0.9999999999999785 3.0
    vertex 40.00000000000001 0.9999999999999785 1.0000000000000002
  endloop
endfacet
facet normal 1.0 0.0 0.0
  outer loop
    vertex 40.00000000000001 0.9999999999999785 3.0
    vertex 40.00000000000001 8.499999999999977 1.0000000000000002
    vertex 40.00000000000001 8.499999999999977 3.0
  endloop
endfacet
endsolid DIN_Rail_Hook_v1
